name rise37.2698peak67.6939fall79.5734.mot
datacolumns 19
datarows 17
range 16.31327700000000 16.33993900000000
endheader
time	ground_force1_vx	ground_force1_vy	ground_force1_vz	ground_force1_px	ground_force1_py	ground_force1_pz	ground_force2_vx	ground_force2_vy	ground_force2_vz	ground_force2_px	ground_force2_py	ground_force2_pz	ground_torque1_x	ground_torque1_y	ground_torque1_z	ground_torque2_x	ground_torque2_y	ground_torque2_z	
16.31327700000000	-1.13935900000000	40.58193600000000	-8.13054700000000	0.33888200000000	0.00000000000000	0.08199600000000	-46.57504900000000	801.01097100000004	-52.82163800000000	0.13347700000000	0.00000000000000	-0.09310300000000	0.00000000000000	-6.64223400000000	0.00000000000000	0.00000000000000	-20.39077700000000	0.00000000000000	
16.31494000000000	-1.14869500000000	47.35972700000000	-9.17043800000000	0.34344600000000	0.00000000000000	0.08225800000000	-47.36471700000000	799.52252299999998	-52.52854600000000	0.13257800000000	0.00000000000000	-0.09297200000000	0.00000000000000	-7.54179400000000	0.00000000000000	0.00000000000000	-20.36297500000000	0.00000000000000	
16.31661900000000	-1.10357800000000	54.16798300000000	-10.12516600000000	0.34766200000000	0.00000000000000	0.08250900000000	-48.17637600000000	797.93477800000005	-52.21881400000000	0.13168100000000	0.00000000000000	-0.09283800000000	0.00000000000000	-8.38085200000000	0.00000000000000	0.00000000000000	-20.33778200000000	0.00000000000000	
16.31827700000000	-0.99829600000000	60.91432400000000	-10.97319600000000	0.35158000000000	0.00000000000000	0.08275000000000	-49.00958700000000	796.24433899999997	-51.89217400000000	0.13079000000000	0.00000000000000	-0.09270100000000	0.00000000000000	-9.14073500000000	0.00000000000000	0.00000000000000	-20.31517800000000	0.00000000000000	
16.31994400000000	-0.82898400000000	67.53012500000000	-11.70001200000000	0.35524200000000	0.00000000000000	0.08298300000000	-49.86381700000000	794.44771400000002	-51.54837500000000	0.12990400000000	0.00000000000000	-0.09256000000000	0.00000000000000	-9.80851500000000	0.00000000000000	0.00000000000000	-20.29512500000000	0.00000000000000	
16.32162200000000	-0.59359600000000	73.97245500000000	-12.29824000000000	0.35867900000000	0.00000000000000	0.08320800000000	-50.73843500000000	792.54131900000004	-51.18717500000000	0.12902400000000	0.00000000000000	-0.09241600000000	0.00000000000000	-10.37722000000000	0.00000000000000	0.00000000000000	-20.27756400000000	0.00000000000000	
16.32327600000000	-0.29172500000000	80.22358699999999	-12.76717700000000	0.36191800000000	0.00000000000000	0.08342800000000	-51.63271200000000	790.52149099999997	-50.80835100000000	0.12815100000000	0.00000000000000	-0.09226900000000	0.00000000000000	-10.84551800000000	0.00000000000000	0.00000000000000	-20.26241700000000	0.00000000000000	
16.32493700000000	0.07566300000000	86.28851100000000	-13.11184000000000	0.36498400000000	0.00000000000000	0.08364300000000	-52.54581900000000	788.38449500000002	-50.41169200000000	0.12728600000000	0.00000000000000	-0.09211800000000	0.00000000000000	-11.21699500000000	0.00000000000000	0.00000000000000	-20.24958700000000	0.00000000000000	
16.32662000000000	0.50655600000000	92.19101300000000	-13.34172300000000	0.36789300000000	0.00000000000000	0.08385300000000	-53.47682500000000	786.12653399999999	-49.99701000000000	0.12642900000000	0.00000000000000	-0.09196300000000	0.00000000000000	-11.49914100000000	0.00000000000000	0.00000000000000	-20.23895400000000	0.00000000000000	
16.32827600000000	0.99824000000000	97.96889200000000	-13.46939400000000	0.37066300000000	0.00000000000000	0.08406000000000	-54.42469800000000	783.74376500000005	-49.56413600000000	0.12558100000000	0.00000000000000	-0.09180500000000	0.00000000000000	-11.70220400000000	0.00000000000000	0.00000000000000	-20.23038200000000	0.00000000000000	
16.32994400000000	1.54763900000000	103.66885600000001	-13.50909500000000	0.37330500000000	0.00000000000000	0.08426400000000	-55.38830100000000	781.23230400000000	-49.11292200000000	0.12474300000000	0.00000000000000	-0.09164300000000	0.00000000000000	-11.83799700000000	0.00000000000000	0.00000000000000	-20.22371200000000	0.00000000000000	
16.33161100000000	2.15161100000000	109.34157500000001	-13.47544000000000	0.37583100000000	0.00000000000000	0.08446500000000	-56.36639400000000	778.58824000000004	-48.64324400000000	0.12391600000000	0.00000000000000	-0.09147800000000	0.00000000000000	-11.91879300000000	0.00000000000000	0.00000000000000	-20.21876600000000	0.00000000000000	
16.33327400000000	2.80718600000000	115.03725400000000	-13.38231000000000	0.37825100000000	0.00000000000000	0.08466300000000	-57.35763600000000	775.80765199999996	-48.15500400000000	0.12309900000000	0.00000000000000	-0.09130900000000	0.00000000000000	-11.95636600000000	0.00000000000000	0.00000000000000	-20.21534600000000	0.00000000000000	
16.33493700000000	3.51175200000000	120.80198600000000	-13.24199600000000	0.38057100000000	0.00000000000000	0.08486000000000	-58.36057800000000	772.88661500000001	-47.64813200000000	0.12229500000000	0.00000000000000	-0.09113600000000	0.00000000000000	-11.96122900000000	0.00000000000000	0.00000000000000	-20.21323500000000	0.00000000000000	
16.33661000000000	4.26315700000000	126.67503200000000	-13.06461700000000	0.38279900000000	0.00000000000000	0.08505500000000	-59.37367300000000	769.82122100000004	-47.12258500000000	0.12150200000000	0.00000000000000	-0.09096000000000	0.00000000000000	-11.94210500000000	0.00000000000000	0.00000000000000	-20.21219700000000	0.00000000000000	
16.33827200000000	5.05976300000000	132.68707000000001	-12.85779100000000	0.38494000000000	0.00000000000000	0.08524800000000	-60.39526900000000	766.60758799999996	-46.57835300000000	0.12072200000000	0.00000000000000	-0.09077900000000	0.00000000000000	-11.90562100000000	0.00000000000000	0.00000000000000	-20.21197500000000	0.00000000000000	
16.33993900000000	5.90042700000000	138.85936899999999	-12.62656900000000	0.38699900000000	0.00000000000000	0.08544000000000	-61.42361500000000	763.24187700000004	-46.01545600000000	0.11995500000000	0.00000000000000	-0.09059600000000	0.00000000000000	-11.85621300000000	0.00000000000000	0.00000000000000	-20.21229700000000	0.00000000000000	
